<?xml version="1.0" encoding="UTF-8"?>
<!DOCTYPE svg PUBLIC "-//W3C//DTD SVG 1.1//EN" "http://www.w3.org/Graphics/SVG/1.1/DTD/svg11.dtd">
<svg xmlns="http://www.w3.org/2000/svg" version="1.1" width="256px" height="256px" style="shape-rendering:geometricPrecision; text-rendering:geometricPrecision; image-rendering:optimizeQuality; fill-rule:evenodd; clip-rule:evenodd" xmlns:xlink="http://www.w3.org/1999/xlink">
<g><path style="opacity:1" fill="#fec400" d="M 34.5,-0.5 C 107.5,-0.5 180.5,-0.5 253.5,-0.5C 253.833,0.5 254.5,1.16667 255.5,1.5C 255.5,74.5 255.5,147.5 255.5,220.5C 252.282,240.052 240.948,251.718 221.5,255.5C 158.5,255.5 95.5,255.5 32.5,255.5C 14.5,251.5 3.5,240.5 -0.5,222.5C -0.5,159.5 -0.5,96.5 -0.5,33.5C 3.28159,14.0518 14.9483,2.71843 34.5,-0.5 Z"/></g>
<g><path style="opacity:1" fill="#010000" d="M 30.5,7.5 C 84.8333,7.5 139.167,7.5 193.5,7.5C 193.333,21.1707 193.5,34.8374 194,48.5C 194.833,52 197,54.1667 200.5,55C 216.163,55.4999 231.83,55.6666 247.5,55.5C 247.667,111.834 247.5,168.168 247,224.5C 243.5,236 236,243.5 224.5,247C 159.833,247.667 95.1667,247.667 30.5,247C 19,243.5 11.5,236 8,224.5C 7.33333,159.833 7.33333,95.1667 8,30.5C 11.684,18.9837 19.184,11.3171 30.5,7.5 Z"/></g>
<g><path style="opacity:1" fill="#7e5f00" d="M 208.5,13.5 C 212.97,12.5139 217.637,12.1805 222.5,12.5C 222.784,14.4147 222.451,16.0813 221.5,17.5C 221.5,16.1667 221.5,14.8333 221.5,13.5C 217.167,13.5 212.833,13.5 208.5,13.5 Z"/></g>
<g><path style="opacity:1" fill="#010000" d="M 208.5,13.5 C 212.833,13.5 217.167,13.5 221.5,13.5C 221.5,14.8333 221.5,16.1667 221.5,17.5C 217.154,17.3343 212.821,17.501 208.5,18C 207.944,18.3826 207.611,18.8826 207.5,19.5C 206.539,21.2646 206.205,23.2646 206.5,25.5C 211.5,25.5 216.5,25.5 221.5,25.5C 221.5,26.8333 221.5,28.1667 221.5,29.5C 216.5,29.5 211.5,29.5 206.5,29.5C 206.5,33.1667 206.5,36.8333 206.5,40.5C 205.167,40.5 203.833,40.5 202.5,40.5C 202.334,33.1591 202.5,25.8258 203,18.5C 204.076,15.921 205.909,14.2543 208.5,13.5 Z"/></g>
<g><path style="opacity:1" fill="#ddaa00" d="M 48.5,16.5 C 51.8499,16.335 55.1832,16.5017 58.5,17C 59.3802,18.3561 59.7135,19.8561 59.5,21.5C 55.4862,21.3345 51.4862,21.5012 47.5,22C 46.5939,23.6995 46.2606,25.5328 46.5,27.5C 50.5,27.5 54.5,27.5 58.5,27.5C 58.5,28.8333 58.5,30.1667 58.5,31.5C 54.5,31.5 50.5,31.5 46.5,31.5C 46.5,34.5 46.5,37.5 46.5,40.5C 44.8333,40.5 43.1667,40.5 41.5,40.5C 41.1226,33.7431 41.6226,27.0764 43,20.5C 44.4998,18.5313 46.3331,17.198 48.5,16.5 Z"/></g>
<g><path style="opacity:1" fill="#e4b000" d="M 113.5,22.5 C 113.5,23.5 113.5,24.5 113.5,25.5C 111.901,25.2322 110.568,25.5655 109.5,26.5C 109.335,29.8499 109.502,33.1832 110,36.5C 111.011,37.3366 112.178,37.67 113.5,37.5C 113.5,38.5 113.5,39.5 113.5,40.5C 111.473,40.6621 109.473,40.4955 107.5,40C 106.874,39.2496 106.374,38.4162 106,37.5C 105.895,33.0073 105.062,28.674 103.5,24.5C 104.894,22.3543 105.56,20.021 105.5,17.5C 106.833,17.5 108.167,17.5 109.5,17.5C 109.5,19.1667 109.5,20.8333 109.5,22.5C 110.833,22.5 112.167,22.5 113.5,22.5 Z"/></g>
<g><path style="opacity:1" fill="#040300" d="M 232.5,19.5 C 236.5,19.5 240.5,19.5 244.5,19.5C 244.5,20.5 244.5,21.5 244.5,22.5C 240.629,22.185 236.962,22.5184 233.5,23.5C 232.25,23.5774 231.417,24.244 231,25.5C 230.183,28.9643 230.517,32.2976 232,35.5C 236.066,36.4637 240.233,36.797 244.5,36.5C 244.5,37.8333 244.5,39.1667 244.5,40.5C 230.159,42.9962 224.659,37.3295 228,23.5C 228.748,21.249 230.248,19.9156 232.5,19.5 Z"/></g>
<g><path style="opacity:1" fill="#dfac00" d="M 63.5,22.5 C 78.3284,19.831 83.3284,25.6643 78.5,40C 73.8333,40.6667 69.1667,40.6667 64.5,40C 62.297,37.24 61.9637,34.24 63.5,31C 67.3628,29.6463 71.3628,29.1463 75.5,29.5C 75.5,28.5 75.5,27.5 75.5,26.5C 71.5,26.5 67.5,26.5 63.5,26.5C 63.5,25.1667 63.5,23.8333 63.5,22.5 Z"/></g>
<g><path style="opacity:1" fill="#e1ad00" d="M 84.5,22.5 C 98.9482,19.9513 104.615,25.9513 101.5,40.5C 100.167,40.5 98.8333,40.5 97.5,40.5C 97.6657,36.1539 97.499,31.8206 97,27.5C 93.9433,26.5495 90.7766,26.2161 87.5,26.5C 87.5,31.1667 87.5,35.8333 87.5,40.5C 86.1667,40.5 84.8333,40.5 83.5,40.5C 83.2114,34.4093 83.5447,28.4093 84.5,22.5 Z"/></g>
<g><path style="opacity:1" fill="#ebb500" d="M 117.5,22.5 C 121.846,22.3343 126.179,22.501 130.5,23C 131.416,23.3742 132.25,23.8742 133,24.5C 133.667,29.5 133.667,34.5 133,39.5C 128.587,40.6324 124.087,40.7991 119.5,40C 115.5,36.6667 115.5,33.3333 119.5,30C 122.817,29.5017 126.15,29.335 129.5,29.5C 129.5,28.5 129.5,27.5 129.5,26.5C 125.5,26.5 121.5,26.5 117.5,26.5C 117.5,25.1667 117.5,23.8333 117.5,22.5 Z"/></g>
<g><path style="opacity:1" fill="#deab00" d="M 139.5,22.5 C 143.5,22.5 147.5,22.5 151.5,22.5C 151.5,23.8333 151.5,25.1667 151.5,26.5C 147.833,26.5 144.167,26.5 140.5,26.5C 140.5,27.5 140.5,28.5 140.5,29.5C 143.518,29.3354 146.518,29.502 149.5,30C 153.485,33.3807 153.485,36.714 149.5,40C 145.179,40.499 140.846,40.6657 136.5,40.5C 136.5,39.1667 136.5,37.8333 136.5,36.5C 140.5,36.5 144.5,36.5 148.5,36.5C 148.5,35.5 148.5,34.5 148.5,33.5C 144.161,34.1539 140.327,33.1539 137,30.5C 136.023,27.1827 136.856,24.516 139.5,22.5 Z"/></g>
<g><path style="opacity:1" fill="#e4b000" d="M 154.5,22.5 C 155.978,22.238 157.311,22.5713 158.5,23.5C 160.244,27.9082 162.078,32.2415 164,36.5C 165.833,32.1667 167.667,27.8333 169.5,23.5C 170.833,22.1667 172.167,22.1667 173.5,23.5C 170.097,31.3805 167.097,39.3805 164.5,47.5C 163.167,47.5 161.833,47.5 160.5,47.5C 160.665,45.1732 161.331,43.0065 162.5,41C 158.972,35.2656 156.306,29.0989 154.5,22.5 Z"/></g>
<g><path style="opacity:1" fill="#987400" d="M 232.5,19.5 C 236.634,18.5151 240.968,18.1818 245.5,18.5C 245.5,20.1667 245.5,21.8333 245.5,23.5C 241.5,23.5 237.5,23.5 233.5,23.5C 236.962,22.5184 240.629,22.185 244.5,22.5C 244.5,21.5 244.5,20.5 244.5,19.5C 240.5,19.5 236.5,19.5 232.5,19.5 Z"/></g>
<g><path style="opacity:1" fill="#ae8500" d="M 207.5,19.5 C 207.5,21.1667 207.5,22.8333 207.5,24.5C 212.363,24.1805 217.03,24.5139 221.5,25.5C 216.5,25.5 211.5,25.5 206.5,25.5C 206.205,23.2646 206.539,21.2646 207.5,19.5 Z"/></g>
<g><path style="opacity:1" fill="#886700" d="M 113.5,22.5 C 114.434,23.5676 114.768,24.901 114.5,26.5C 112.833,26.5 111.167,26.5 109.5,26.5C 110.568,25.5655 111.901,25.2322 113.5,25.5C 113.5,24.5 113.5,23.5 113.5,22.5 Z"/></g>
<g><path style="opacity:1" fill="#000000" d="M 66.5,33.5 C 69.5,33.5 72.5,33.5 75.5,33.5C 75.5,34.5 75.5,35.5 75.5,36.5C 72.5,36.5 69.5,36.5 66.5,36.5C 66.5,35.5 66.5,34.5 66.5,33.5 Z"/></g>
<g><path style="opacity:1" fill="#020100" d="M 121.5,33.5 C 124.167,33.5 126.833,33.5 129.5,33.5C 129.5,34.5 129.5,35.5 129.5,36.5C 126.833,36.5 124.167,36.5 121.5,36.5C 120.167,35.5 120.167,34.5 121.5,33.5 Z"/></g>
<g><path style="opacity:1" fill="#8d6b00" d="M 121.5,33.5 C 124.287,32.5233 127.287,32.19 130.5,32.5C 130.5,34.1667 130.5,35.8333 130.5,37.5C 127.287,37.81 124.287,37.4767 121.5,36.5C 124.167,36.5 126.833,36.5 129.5,36.5C 129.5,35.5 129.5,34.5 129.5,33.5C 126.833,33.5 124.167,33.5 121.5,33.5 Z"/></g>
<g><path style="opacity:1" fill="#fec500" d="M 76.5,43.5 C 77.5,43.5 78.5,43.5 79.5,43.5C 79.5,52.1667 79.5,60.8333 79.5,69.5C 78.5,69.5 77.5,69.5 76.5,69.5C 76.5,60.8333 76.5,52.1667 76.5,43.5 Z"/></g>
<g><path style="opacity:1" fill="#fec500" d="M 84.5,44.5 C 85.5,44.5 86.5,44.5 87.5,44.5C 87.5,45.8333 87.5,47.1667 87.5,48.5C 86.5,48.5 85.5,48.5 84.5,48.5C 84.5,47.1667 84.5,45.8333 84.5,44.5 Z"/></g>
<g><path style="opacity:1" fill="#ecb600" d="M 38.5,46.5 C 42.8333,46.5 47.1667,46.5 51.5,46.5C 51.5,47.8333 51.5,49.1667 51.5,50.5C 39.3757,48.1152 35.3757,52.6152 39.5,64C 43.3628,65.3537 47.3628,65.8537 51.5,65.5C 51.5,66.8333 51.5,68.1667 51.5,69.5C 37.5348,72.0338 31.7015,66.3672 34,52.5C 35.332,50.34 36.832,48.34 38.5,46.5 Z"/></g>
<g><path style="opacity:1" fill="#e4b000" d="M 58.5,51.5 C 69.102,49.6029 73.602,53.9362 72,64.5C 71.2155,66.286 70.0488,67.786 68.5,69C 57,71.5 52.5,67 55,55.5C 55.6897,53.6498 56.8564,52.3164 58.5,51.5 Z"/></g>
<g><path style="opacity:1" fill="#fec500" d="M 84.5,51.5 C 85.5,51.5 86.5,51.5 87.5,51.5C 87.5,57.5 87.5,63.5 87.5,69.5C 86.5,69.5 85.5,69.5 84.5,69.5C 84.5,63.5 84.5,57.5 84.5,51.5 Z"/></g>
<g><path style="opacity:1" fill="#e1ad00" d="M 93.5,51.5 C 97.8333,51.5 102.167,51.5 106.5,51.5C 106.5,52.8333 106.5,54.1667 106.5,55.5C 102.833,55.5 99.1667,55.5 95.5,55.5C 95.5,56.5 95.5,57.5 95.5,58.5C 98.9783,58.1842 102.312,58.6842 105.5,60C 107.036,63.24 106.703,66.24 104.5,69C 100.179,69.499 95.8461,69.6657 91.5,69.5C 91.5,68.1667 91.5,66.8333 91.5,65.5C 95.5,65.5 99.5,65.5 103.5,65.5C 103.5,64.5 103.5,63.5 103.5,62.5C 95.1898,64.6632 91.3565,61.6632 92,53.5C 92.7172,52.9558 93.2172,52.2891 93.5,51.5 Z"/></g>
<g><path style="opacity:1" fill="#dca900" d="M 112.5,51.5 C 116.514,51.3345 120.514,51.5012 124.5,52C 127.333,55.6631 127,58.9965 123.5,62C 120.183,62.4983 116.85,62.665 113.5,62.5C 113.5,63.5 113.5,64.5 113.5,65.5C 117.833,65.5 122.167,65.5 126.5,65.5C 126.5,66.8333 126.5,68.1667 126.5,69.5C 112.751,73.2453 107.251,68.2453 110,54.5C 111.045,53.6266 111.878,52.6266 112.5,51.5 Z"/></g>
<g><path style="opacity:1" fill="#e9b300" d="M 130.5,51.5 C 131.5,51.5 132.5,51.5 133.5,51.5C 133.334,55.5138 133.501,59.5138 134,63.5C 136.725,65.7577 139.725,66.0911 143,64.5C 143.499,60.1794 143.666,55.8461 143.5,51.5C 144.833,51.5 146.167,51.5 147.5,51.5C 147.666,56.1785 147.499,60.8452 147,65.5C 145.196,68.8171 142.363,70.1504 138.5,69.5C 135.363,69.949 132.863,68.949 131,66.5C 130.501,61.5111 130.334,56.5111 130.5,51.5 Z"/></g>
<g><path style="opacity:1" fill="#f6be00" d="M 173.5,55.5 C 171.735,54.5386 169.735,54.2053 167.5,54.5C 167.5,59.5 167.5,64.5 167.5,69.5C 166.5,69.5 165.5,69.5 164.5,69.5C 164.5,64.8333 164.5,60.1667 164.5,55.5C 161.5,55.5 158.5,55.5 155.5,55.5C 155.5,60.1667 155.5,64.8333 155.5,69.5C 154.5,69.5 153.5,69.5 152.5,69.5C 152.5,63.5 152.5,57.5 152.5,51.5C 160.943,51.0619 169.277,51.5619 177.5,53C 178,53.5 178.5,54 179,54.5C 179.499,59.4889 179.666,64.4889 179.5,69.5C 178.5,69.5 177.5,69.5 176.5,69.5C 176.666,65.4862 176.499,61.4862 176,57.5C 175.292,56.6195 174.458,55.9528 173.5,55.5 Z"/></g>
<g><path style="opacity:1" fill="#030200" d="M 59.5,55.5 C 68.1594,53.6756 70.8261,56.8422 67.5,65C 58.7603,67.1321 56.0937,63.9654 59.5,55.5 Z"/></g>
<g><path style="opacity:1" fill="#040200" d="M 113.5,55.5 C 116.5,55.5 119.5,55.5 122.5,55.5C 122.5,56.5 122.5,57.5 122.5,58.5C 119.5,58.5 116.5,58.5 113.5,58.5C 113.5,57.5 113.5,56.5 113.5,55.5 Z"/></g>
<g><path style="opacity:1" fill="#775a00" d="M 173.5,55.5 C 171.833,55.5 170.167,55.5 168.5,55.5C 168.819,60.3633 168.486,65.03 167.5,69.5C 167.5,64.5 167.5,59.5 167.5,54.5C 169.735,54.2053 171.735,54.5386 173.5,55.5 Z"/></g>
<g><path style="opacity:1" fill="#fec500" d="M 91.5,79.5 C 99.1869,77.996 105.687,79.996 111,85.5C 118.612,94.7241 124.112,105.057 127.5,116.5C 139.379,116.289 149.379,120.456 157.5,129C 175.658,130.389 192.658,135.389 208.5,144C 215.589,148.42 220.423,154.587 223,162.5C 223.5,183.831 223.667,205.164 223.5,226.5C 218.5,226.5 213.5,226.5 208.5,226.5C 208.839,221.07 208.339,215.736 207,210.5C 202.155,204.921 197.822,205.254 194,211.5C 193.501,217.157 193.334,222.824 193.5,228.5C 188.5,228.5 183.5,228.5 178.5,228.5C 178.666,222.491 178.499,216.491 178,210.5C 175.67,203.171 170.837,200.671 163.5,203C 159.529,204.88 157.363,208.047 157,212.5C 156.501,217.155 156.334,221.821 156.5,226.5C 151.833,226.5 147.167,226.5 142.5,226.5C 143.073,218.977 142.24,211.644 140,204.5C 131.667,195.167 123.333,195.167 115,204.5C 112.76,211.644 111.927,218.977 112.5,226.5C 107.5,226.5 102.5,226.5 97.5,226.5C 97.6662,220.491 97.4995,214.491 97,208.5C 93.3104,201.713 88.1437,200.213 81.5,204C 79.9512,205.214 78.7845,206.714 78,208.5C 76.6226,215.076 76.1226,221.743 76.5,228.5C 71.1667,228.5 65.8333,228.5 60.5,228.5C 60.6662,222.158 60.4995,215.825 60,209.5C 55.864,205.366 51.864,205.7 48,210.5C 46.661,215.736 46.161,221.07 46.5,226.5C 41.5,226.5 36.5,226.5 31.5,226.5C 31.3333,191.832 31.5,157.165 32,122.5C 37.9861,105.179 49.4861,93.0124 66.5,86C 74.8261,83.2429 83.1594,81.0763 91.5,79.5 Z"/></g>
<g><path style="opacity:1" fill="#000000" d="M 84.5,100.5 C 89.1264,99.7004 92.9597,101.034 96,104.5C 97.4247,111.385 97.9247,118.385 97.5,125.5C 90.5564,126.651 83.5564,127.318 76.5,127.5C 76.1156,120.411 76.6156,113.411 78,106.5C 80.0627,104.266 82.2294,102.266 84.5,100.5 Z"/></g>
<g><path style="opacity:1" fill="#000000" d="M 52.5,108.5 C 55.2724,108.22 57.7724,108.887 60,110.5C 60.4997,117.826 60.6663,125.159 60.5,132.5C 55.8944,133.755 51.2277,134.755 46.5,135.5C 46.1039,127.747 46.6039,120.08 48,112.5C 49.3968,110.93 50.8968,109.596 52.5,108.5 Z"/></g>
<g><path style="opacity:1" fill="#000000" d="M 122.5,146.5 C 133.191,144.751 139.691,149.084 142,159.5C 142.499,164.823 142.666,170.156 142.5,175.5C 132.5,175.5 122.5,175.5 112.5,175.5C 112.171,168.759 112.671,162.092 114,155.5C 115.688,151.315 118.521,148.315 122.5,146.5 Z"/></g>
<g><path style="opacity:1" fill="#000000" d="M 85.5,149.5 C 89.9503,149.142 93.4503,150.808 96,154.5C 97.3844,161.411 97.8844,168.411 97.5,175.5C 90.4922,176.112 83.4922,176.778 76.5,177.5C 76.3338,171.158 76.5005,164.825 77,158.5C 78.6878,154.315 81.5212,151.315 85.5,149.5 Z"/></g>
<g><path style="opacity:1" fill="#000000" d="M 164.5,150.5 C 171.434,149.882 175.934,152.882 178,159.5C 178.499,165.491 178.666,171.491 178.5,177.5C 171.223,176.321 163.89,175.655 156.5,175.5C 156.196,169.423 156.696,163.423 158,157.5C 159.425,154.394 161.592,152.06 164.5,150.5 Z"/></g>
<g><path style="opacity:1" fill="#000000" d="M 53.5,154.5 C 56.0991,154.549 58.2658,155.549 60,157.5C 60.8313,164.856 60.6646,172.189 59.5,179.5C 55.2359,180.179 51.0692,181.179 47,182.5C 46.3333,175.833 46.3333,169.167 47,162.5C 48.0015,158.801 50.1681,156.134 53.5,154.5 Z"/></g>
<g><path style="opacity:1" fill="#000000" d="M 197.5,154.5 C 201.426,154.047 204.592,155.38 207,158.5C 208.396,166.08 208.896,173.747 208.5,181.5C 203.473,180.628 198.473,179.628 193.5,178.5C 193.334,172.158 193.5,165.825 194,159.5C 194.997,157.677 196.164,156.01 197.5,154.5 Z"/></g>
</svg>
